<svg xmlns="http://www.w3.org/2000/svg" viewBox="0 0 128 128"><defs><style>.cls-1{isolation:isolate;}.cls-2{mix-blend-mode:multiply;}.cls-3{fill:#191828;}.cls-4{fill:#eacba9;}.cls-5{fill:#39c74a;}.cls-6,.cls-8{fill:#fcf1e6;}.cls-7{fill:#346fd6;}.cls-8{stroke:#fcf1e6;stroke-linecap:round;stroke-linejoin:round;}.cls-9{fill:#e27329;}.cls-10{fill:#db3931;}</style></defs><title>bento</title><g class="cls-1"><g id="icons" class="cls-2"><rect class="cls-3" x="12" y="19" width="88" height="72" rx="4" ry="4"/><rect class="cls-4" x="14" y="21" width="22" height="22" rx="2" ry="2" transform="translate(57 7) rotate(90)"/><rect class="cls-4" x="5" y="54" width="40" height="22" rx="2" ry="2" transform="translate(90 40) rotate(90)"/><rect class="cls-4" x="57" y="2" width="22" height="60" rx="2" ry="2" transform="translate(100 -36) rotate(90)"/><rect class="cls-4" x="48" y="35" width="40" height="60" rx="2" ry="2" transform="translate(133 -3) rotate(90)"/><path class="cls-5" d="M20.009,75.2c.495-1.458-.667-3.119-.458-4.516.225-1.508,1.7-2.817,1.674-4.229-.024-1.53-1.982-2.78-2.189-4.165-.232-1.55.763-3.138.451-4.463-.384-1.632,1.087-3.4.847-4.613-.326-1.648-.324-1.868,1.223-2.563a5.465,5.465,0,0,1,4.1-.417c1.52.431,1.971.865,2.266,2.6.214,1.264,2.853,2.6,3.021,4.394.137,1.461-.039,3.13.011,4.764.047,1.544-.191,3.195-.266,4.754-.078,1.61-2.254,2.987-2.509,4.465a16.253,16.253,0,0,1-1.58,4.146c-.74,1.662-.121,3.7-1.256,4.318-1.623.889-3.041-.229-4.15-1.095C20.193,77.794,19.37,77.081,20.009,75.2Z"/><path class="cls-6" d="M92.542,79.837c-2.476,2.052-4.22.765-7.67.765s-3.451-1.143-6.9-1.143-3.452-1.163-6.9-1.163-3.453-.1-6.906-.1-3.452,1.651-6.9,1.651-3.454-.041-6.908-.041-5.139,2.033-7.621-.019c-2.4-1.987,1.895-3.484,1.895-6.34s-2.114-2.854-2.114-5.709-.378-2.857-.378-5.714,1.635-2.859,1.635-5.718-1.918-3.015.485-5.005c2.476-2.052,2.641.193,6.092.193s3.451-.545,6.9-.545,3.452-.8,6.9-.8,3.453.464,6.906.464,3.452,1.163,6.9,1.163,3.454-2.751,6.908-2.751,4.308-.385,6.789,1.667c2.4,1.987.47,2.751.47,5.607s1.545,2.854,1.545,5.709-.652,2.857-.652,5.714-1.038,2.711-.173,5.473C93.885,76.519,94.945,77.846,92.542,79.837Z"/><path class="cls-7" d="M110.793,102.032,76.9,63.016A1.5,1.5,0,0,1,79.1,60.984l36.1,36.984a3,3,0,0,1-4.3,4.193C110.873,102.121,110.829,102.074,110.793,102.032Z"/><path class="cls-7" d="M100.586,107.782,70.793,64.891a1.5,1.5,0,0,1,2.414-1.782l32.207,41.109a3,3,0,1,1-4.725,3.7C100.655,107.877,100.617,107.826,100.586,107.782Z"/><circle class="cls-3" cx="50" cy="32" r="7"/><circle class="cls-3" cx="86" cy="32" r="7"/><circle class="cls-3" cx="68" cy="32" r="7"/><circle class="cls-8" cx="50" cy="32" r="4.5"/><circle class="cls-8" cx="68" cy="32" r="4.5"/><circle class="cls-8" cx="86" cy="32" r="4.5"/><circle class="cls-9" cx="50" cy="32" r="3"/><circle class="cls-9" cx="68" cy="32" r="3"/><circle class="cls-9" cx="86" cy="32" r="3"/><circle class="cls-10" cx="21" cy="28" r="3"/><circle class="cls-10" cx="26" cy="29" r="3"/><circle class="cls-10" cx="22" cy="31" r="3"/><circle class="cls-10" cx="29" cy="35" r="3"/><circle class="cls-10" cx="31" cy="31" r="3"/><circle class="cls-10" cx="27" cy="32" r="3"/><circle class="cls-10" cx="26" cy="37" r="3"/><circle class="cls-10" cx="23" cy="34" r="3"/><circle class="cls-10" cx="20" cy="33" r="3"/></g></g></svg>