<?xml version="1.0" encoding="UTF-8"?>
<svg width="25px" height="20px" viewBox="0 0 25 20" version="1.1" xmlns="http://www.w3.org/2000/svg" xmlns:xlink="http://www.w3.org/1999/xlink">
    <!-- Generator: Sketch 42 (36781) - http://www.bohemiancoding.com/sketch -->
    <title>contact-card</title>
    <desc>Created with Sketch.</desc>
    <defs></defs>
    <g id="Page-1" stroke="none" stroke-width="1" fill="none" fill-rule="evenodd">
        <g id="Shaded" transform="translate(-50.000000, -153.000000)" fill="#938CAA">
            <g id="contact-card" transform="translate(50.000000, 153.000000)">
                <path d="M24.5,15.0010998 C24.224,15.0010998 24,15.2250998 24,15.5010998 C24,15.7760998 23.775,16.0010998 23.5,16.0010998 L20.95,16.0010998 C20.718,14.8610998 19.707,14.0010998 18.5,14.0010998 C17.293,14.0010998 16.282,14.8610998 16.05,16.0010998 L8.95,16.0010998 C8.718,14.8610998 7.707,14.0010998 6.5,14.0010998 C5.293,14.0010998 4.282,14.8610998 4.05,16.0010998 L1.5,16.0010998 C1.225,16.0010998 1,15.7760998 1,15.5010998 C1,15.2250998 0.776,15.0010998 0.5,15.0010998 C0.224,15.0010998 0,15.2250998 0,15.5010998 L0,17.5010998 C0,18.3280998 0.673,19.0010998 1.5,19.0010998 L4.5,19.0010998 C4.776,19.0010998 5,18.7770998 5,18.5010998 C5,17.6740998 5.673,17.0010998 6.5,17.0010998 C7.327,17.0010998 8,17.6740998 8,18.5010998 C8,18.7770998 8.224,19.0010998 8.5,19.0010998 L16.5,19.0010998 C16.776,19.0010998 17,18.7770998 17,18.5010998 C17,17.6740998 17.673,17.0010998 18.5,17.0010998 C19.327,17.0010998 20,17.6740998 20,18.5010998 C20,18.7770998 20.224,19.0010998 20.5,19.0010998 L23.5,19.0010998 C24.327,19.0010998 25,18.3280998 25,17.5010998 L25,15.5010998 C25,15.2250998 24.776,15.0010998 24.5,15.0010998" id="Fill-47" opacity="0.239999995"></path>
                <path d="M21,11.5041 C21,11.7801 20.776,12.0041 20.5,12.0041 L14.5,12.0041 C14.224,12.0041 14,11.7801 14,11.5041 C14,11.2281 14.224,11.0041 14.5,11.0041 L20.5,11.0041 C20.776,11.0041 21,11.2281 21,11.5041 L21,11.5041 Z M14,9.5041 C14,9.2281 14.224,9.0041 14.5,9.0041 L19.5,9.0041 C19.776,9.0041 20,9.2281 20,9.5041 C20,9.7801 19.776,10.0041 19.5,10.0041 L14.5,10.0041 C14.224,10.0041 14,9.7801 14,9.5041 L14,9.5041 Z M22,7.5041 C22,7.7801 21.776,8.0041 21.5,8.0041 L14.5,8.0041 C14.224,8.0041 14,7.7801 14,7.5041 C14,7.2281 14.224,7.0041 14.5,7.0041 L21.5,7.0041 C21.776,7.0041 22,7.2281 22,7.5041 L22,7.5041 Z M14,5.5041 C14,5.2281 14.224,5.0041 14.5,5.0041 L17.5,5.0041 C17.776,5.0041 18,5.2281 18,5.5041 C18,5.7801 17.776,6.0041 17.5,6.0041 L14.5,6.0041 C14.224,6.0041 14,5.7801 14,5.5041 L14,5.5041 Z M4.036,12.0041 C4.279,10.3101 5.74,9.0041 7.5,9.0041 C9.26,9.0041 10.721,10.3101 10.964,12.0041 L4.036,12.0041 Z M6,6.5041 C6,5.6771 6.673,5.0041 7.5,5.0041 C8.327,5.0041 9,5.6771 9,6.5041 C9,7.3311 8.327,8.0041 7.5,8.0041 C6.673,8.0041 6,7.3311 6,6.5041 L6,6.5041 Z M9.186,8.3381 C9.683,7.8811 10,7.2321 10,6.5041 C10,5.1251 8.878,4.0041 7.5,4.0041 C6.122,4.0041 5,5.1251 5,6.5041 C5,7.2321 5.317,7.8811 5.814,8.3381 C4.167,9.0071 3,10.6191 3,12.5041 C3,12.7801 3.224,13.0041 3.5,13.0041 L11.5,13.0041 C11.776,13.0041 12,12.7801 12,12.5041 C12,10.6191 10.833,9.0071 9.186,8.3381 L9.186,8.3381 Z M24,17.5041 C24,17.7791 23.776,18.0041 23.5,18.0041 L20.95,18.0041 C20.717,16.8641 19.708,16.0041 18.5,16.0041 C17.292,16.0041 16.283,16.8641 16.05,18.0041 L8.95,18.0041 C8.717,16.8641 7.708,16.0041 6.5,16.0041 C5.292,16.0041 4.283,16.8641 4.05,18.0041 L1.5,18.0041 C1.224,18.0041 1,17.7791 1,17.5041 L1,1.5041 C1,1.2291 1.224,1.0041 1.5,1.0041 L23.5,1.0041 C23.776,1.0041 24,1.2291 24,1.5041 L24,17.5041 Z M23.5,0.0041 L1.5,0.0041 C0.673,0.0041 0,0.6771 0,1.5041 L0,17.5041 C0,18.3311 0.673,19.0041 1.5,19.0041 L4.5,19.0041 C4.776,19.0041 5,18.7801 5,18.5041 C5,17.6771 5.673,17.0041 6.5,17.0041 C7.327,17.0041 8,17.6771 8,18.5041 C8,18.7801 8.224,19.0041 8.5,19.0041 L16.5,19.0041 C16.776,19.0041 17,18.7801 17,18.5041 C17,17.6771 17.673,17.0041 18.5,17.0041 C19.327,17.0041 20,17.6771 20,18.5041 C20,18.7801 20.224,19.0041 20.5,19.0041 L23.5,19.0041 C24.327,19.0041 25,18.3311 25,17.5041 L25,1.5041 C25,0.6771 24.327,0.0041 23.5,0.0041 L23.5,0.0041 Z" id="Fill-52"></path>
            </g>
        </g>
    </g>
</svg>